<svg xmlns="http://www.w3.org/2000/svg" viewBox="0 0 1024 1024" role="img" aria-label="TrueDrop icon">
  <!-- Full-bleed navy radial gradient (iOS applies squircle mask) -->
  <defs>
    <radialGradient id="bg" cx="35%" cy="28%" r="85%">
      <stop offset="0" stop-color="#27344a"/>
      <stop offset="48%" stop-color="#141a24"/>
      <stop offset="100%" stop-color="#0a0c10"/>
    </radialGradient>
  </defs>
  <rect width="1024" height="1024" fill="url(#bg)"/>

  <!-- Gold border — inset to survive iOS squircle clipping -->
  <rect x="80" y="80" width="864" height="864" rx="195"
        fill="none" stroke="#c9a341" stroke-width="17" opacity="0.92"/>

  <!-- "TD" lettermark — white, bold -->
  <text x="512" y="390"
        font-family="'Arial Black','Segoe UI Black','Segoe UI',system-ui,sans-serif"
        font-weight="900" font-size="310"
        fill="#ffffff" text-anchor="middle" dominant-baseline="central">TD</text>

  <!-- Damped-sine waveform underline — bright orange -->
  <path d="M232.0,650.0 L238.2,629.5 L244.4,610.6 L250.7,593.9 L256.9,580.2 L263.1,569.9 L269.3,563.4 L275.6,560.8 L281.8,562.2 L288.0,567.3 L294.2,575.9 L300.4,587.4 L306.7,601.2 L312.9,616.8 L319.1,633.3 L325.3,650.0 L331.6,666.2 L337.8,681.2 L344.0,694.4 L350.2,705.3 L356.4,713.4 L362.7,718.6 L368.9,720.6 L375.1,719.5 L381.3,715.5 L387.6,708.7 L393.8,699.6 L400.0,688.6 L406.2,676.3 L412.4,663.2 L418.7,650.0 L424.9,637.2 L431.1,625.3 L437.3,614.8 L443.6,606.2 L449.8,599.8 L456.0,595.7 L462.2,594.1 L468.4,594.9 L474.7,598.2 L480.9,603.5 L487.1,610.7 L493.3,619.4 L499.6,629.2 L505.8,639.5 L512.0,650.0 L518.2,660.2 L524.4,669.6 L530.7,677.9 L536.9,684.7 L543.1,689.8 L549.3,693.0 L555.6,694.3 L561.8,693.6 L568.0,691.1 L574.2,686.8 L580.4,681.1 L586.7,674.2 L592.9,666.5 L599.1,658.3 L605.3,650.0 L611.6,642.0 L617.8,634.5 L624.0,627.9 L630.2,622.5 L636.4,618.5 L642.7,615.9 L648.9,614.9 L655.1,615.5 L661.3,617.5 L667.6,620.9 L673.8,625.4 L680.0,630.8 L686.2,636.9 L692.4,643.4 L698.7,650.0 L704.9,656.4 L711.1,662.3 L717.3,667.5 L723.6,671.7 L729.8,675.0 L736.0,677.0 L742.2,677.8 L748.4,677.3 L754.7,675.7 L760.9,673.1 L767.1,669.5 L773.3,665.2 L779.6,660.3 L785.8,655.2 L792.0,650.0"
        fill="none" stroke="#ff6b1a" stroke-width="44"
        stroke-linecap="round" stroke-linejoin="round"/>

  <!-- Lighter core highlight -->
  <path d="M232.0,650.0 L238.2,629.5 L244.4,610.6 L250.7,593.9 L256.9,580.2 L263.1,569.9 L269.3,563.4 L275.6,560.8 L281.8,562.2 L288.0,567.3 L294.2,575.9 L300.4,587.4 L306.7,601.2 L312.9,616.8 L319.1,633.3 L325.3,650.0 L331.6,666.2 L337.8,681.2 L344.0,694.4 L350.2,705.3 L356.4,713.4 L362.7,718.6 L368.9,720.6 L375.1,719.5 L381.3,715.5 L387.6,708.7 L393.8,699.6 L400.0,688.6 L406.2,676.3 L412.4,663.2 L418.7,650.0 L424.9,637.2 L431.1,625.3 L437.3,614.8 L443.6,606.2 L449.8,599.8 L456.0,595.7 L462.2,594.1 L468.4,594.9 L474.7,598.2 L480.9,603.5 L487.1,610.7 L493.3,619.4 L499.6,629.2 L505.8,639.5 L512.0,650.0 L518.2,660.2 L524.4,669.6 L530.7,677.9 L536.9,684.7 L543.1,689.8 L549.3,693.0 L555.6,694.3 L561.8,693.6 L568.0,691.1 L574.2,686.8 L580.4,681.1 L586.7,674.2 L592.9,666.5 L599.1,658.3 L605.3,650.0 L611.6,642.0 L617.8,634.5 L624.0,627.9 L630.2,622.5 L636.4,618.5 L642.7,615.9 L648.9,614.9 L655.1,615.5 L661.3,617.5 L667.6,620.9 L673.8,625.4 L680.0,630.8 L686.2,636.9 L692.4,643.4 L698.7,650.0 L704.9,656.4 L711.1,662.3 L717.3,667.5 L723.6,671.7 L729.8,675.0 L736.0,677.0 L742.2,677.8 L748.4,677.3 L754.7,675.7 L760.9,673.1 L767.1,669.5 L773.3,665.2 L779.6,660.3 L785.8,655.2 L792.0,650.0"
        fill="none" stroke="#ffb080" stroke-width="14"
        stroke-linecap="round" stroke-linejoin="round" opacity="0.8"/>

  <!-- Dot terminals -->
  <circle cx="232.0" cy="650.0" r="24" fill="#ff6b1a"/>
  <circle cx="792.0" cy="650.0" r="24" fill="#ff6b1a"/>
</svg>
